<svg xmlns="http://www.w3.org/2000/svg" xmlns:xlink="http://www.w3.org/1999/xlink" width="245" zoomAndPan="magnify" viewBox="0 0 183.75 35.25" height="47" preserveAspectRatio="xMidYMid meet" version="1.0"><defs><g/><clipPath id="fff306c08b"><path d="M 1.792969 0 L 36.355469 0 L 36.355469 34.515625 L 1.792969 34.515625 Z M 1.792969 0 " clip-rule="nonzero"/></clipPath><clipPath id="be249b6910"><path d="M 3.230469 8.34375 L 32.644531 8.34375 L 32.644531 29.671875 L 3.230469 29.671875 Z M 3.230469 8.34375 " clip-rule="nonzero"/></clipPath></defs><g clip-path="url(#fff306c08b)"><path fill="#000000" d="M 19.074219 0 C 9.527344 0 1.792969 7.738281 1.792969 17.28125 C 1.792969 26.824219 9.527344 34.5625 19.074219 34.5625 C 28.617188 34.5625 36.355469 26.824219 36.355469 17.28125 C 36.355469 7.738281 28.617188 0 19.074219 0 " fill-opacity="1" fill-rule="nonzero"/></g><path fill="#ffffff" d="M 15.753906 18.125 C 15.753906 18.136719 15.753906 18.148438 15.753906 18.160156 L 15.753906 21.558594 L 11.941406 21.558594 C 10.054688 21.558594 8.277344 20.683594 7.136719 19.191406 L 6.53125 18.402344 C 6.445312 18.289062 6.527344 18.125 6.671875 18.125 L 15.753906 18.125 " fill-opacity="1" fill-rule="nonzero"/><path fill="#ffffff" d="M 15.777344 22.472656 C 15.78125 22.496094 15.78125 22.519531 15.785156 22.542969 C 15.882812 23.75 16.210938 24.882812 16.769531 25.910156 L 14.980469 25.910156 C 13.144531 25.910156 11.414062 25.054688 10.304688 23.605469 L 9.578125 22.65625 C 9.523438 22.582031 9.574219 22.472656 9.667969 22.472656 L 15.777344 22.472656 " fill-opacity="1" fill-rule="nonzero"/><g clip-path="url(#be249b6910)"><path fill="#ffffff" d="M 30.277344 16.042969 C 28.707031 14.484375 26.8125 13.703125 24.59375 13.703125 L 20.035156 13.703125 C 20.015625 13.703125 20 13.6875 20 13.667969 L 20 8.378906 C 20 8.359375 19.984375 8.34375 19.964844 8.34375 L 16.589844 8.34375 C 16.570312 8.34375 16.554688 8.359375 16.554688 8.378906 L 16.554688 13.667969 C 16.554688 13.6875 16.539062 13.703125 16.519531 13.703125 L 3.527344 13.703125 C 3.34375 13.703125 3.238281 13.914062 3.351562 14.058594 L 4.605469 15.695312 C 5.296875 16.605469 6.382812 17.136719 7.53125 17.136719 L 24.226562 17.136719 C 24.347656 17.128906 24.46875 17.125 24.59375 17.125 C 25.648438 17.125 26.574219 17.429688 27.371094 18.046875 C 27.375 18.050781 27.820312 18.4375 27.84375 18.460938 C 28.738281 19.347656 29.1875 20.425781 29.1875 21.6875 C 29.1875 21.933594 29.171875 22.171875 29.136719 22.402344 C 28.996094 23.359375 28.566406 24.199219 27.84375 24.914062 C 27.445312 25.308594 27.011719 25.617188 26.539062 25.835938 C 25.949219 26.113281 25.300781 26.25 24.59375 26.25 C 23.886719 26.25 23.238281 26.113281 22.644531 25.835938 C 22.175781 25.617188 21.742188 25.308594 21.34375 24.914062 C 20.621094 24.199219 20.191406 23.359375 20.050781 22.402344 C 20.015625 22.171875 20 21.933594 20 21.6875 C 20 21.621094 20 21.554688 20.003906 21.488281 C 20.046875 20.3125 20.496094 19.300781 21.34375 18.460938 L 21.347656 18.453125 C 21.496094 18.304688 21.394531 18.050781 21.183594 18.050781 L 16.589844 18.050781 C 16.570312 18.050781 16.554688 18.066406 16.554688 18.085938 L 16.554688 21.6875 C 16.554688 21.929688 16.5625 22.167969 16.582031 22.402344 C 16.683594 23.660156 17.058594 24.804688 17.703125 25.835938 C 18.035156 26.363281 18.433594 26.863281 18.90625 27.335938 C 20.476562 28.890625 22.371094 29.671875 24.59375 29.671875 C 26.8125 29.671875 28.707031 28.890625 30.277344 27.335938 C 31.847656 25.773438 32.632812 23.894531 32.632812 21.6875 C 32.632812 19.480469 31.847656 17.601562 30.277344 16.042969 " fill-opacity="1" fill-rule="nonzero"/></g><g fill="#1f1844" fill-opacity="1"><g transform="translate(120.659851, 26.719605)"><g><path d="M 3.714844 -17.078125 C 4.601562 -17.078125 5.347656 -17.824219 5.347656 -18.726562 C 5.347656 -19.625 4.601562 -20.355469 3.714844 -20.355469 C 2.8125 -20.355469 2.066406 -19.625 2.066406 -18.726562 C 2.066406 -17.824219 2.8125 -17.078125 3.714844 -17.078125 Z M 2.476562 0 L 4.925781 0 L 4.925781 -13.828125 L 2.476562 -13.828125 Z M 2.476562 0 "/></g></g></g><g fill="#000000" fill-opacity="1"><g transform="translate(40.838789, 27.439345)"><g><path d="M 10.652344 -14.828125 C 8.730469 -14.828125 7.03125 -14.089844 6.183594 -12.773438 L 6.183594 -21.730469 L 2.109375 -21.730469 L 2.109375 0 L 5.96875 0 L 6.070312 -1.894531 C 6.890625 -0.46875 8.644531 0.339844 10.652344 0.339844 C 14.472656 0.339844 17.640625 -2.488281 17.640625 -7.242188 C 17.640625 -11.996094 14.472656 -14.828125 10.652344 -14.828125 Z M 9.703125 -3.042969 C 7.539062 -3.042969 5.855469 -4.695312 5.855469 -7.242188 C 5.855469 -9.789062 7.554688 -11.460938 9.703125 -11.460938 C 11.871094 -11.460938 13.566406 -9.859375 13.566406 -7.242188 C 13.566406 -4.640625 11.871094 -3.042969 9.703125 -3.042969 Z M 9.703125 -3.042969 "/></g></g></g><g fill="#000000" fill-opacity="1"><g transform="translate(59.438112, 27.439345)"><g><path d="M 2.109375 0 L 6.226562 0 L 6.226562 -21.730469 L 2.109375 -21.730469 Z M 2.109375 0 "/></g></g></g><g fill="#000000" fill-opacity="1"><g transform="translate(67.768915, 27.439345)"><g><path d="M 14.035156 -3.535156 L 14.035156 -9.578125 C 14.035156 -13.964844 10.835938 -14.828125 7.921875 -14.828125 C 4.058594 -14.828125 1.851562 -13.453125 1.246094 -10.441406 L 4.851562 -9.789062 C 5.105469 -11.429688 6.226562 -12.011719 7.695312 -12.011719 C 8.84375 -12.011719 10.144531 -11.613281 10.144531 -10.1875 C 10.144531 -9.59375 9.777344 -9.238281 8.742188 -8.996094 L 6.351562 -8.460938 C 3.308594 -7.796875 1.0625 -6.777344 1.0625 -3.761719 C 1.0625 -0.734375 3.296875 0.28125 5.589844 0.28125 C 7.285156 0.28125 9.167969 -0.269531 10.257812 -1.585938 L 10.582031 0 L 14.386719 0 L 14.386719 -0.394531 C 14.132812 -1.214844 14.035156 -1.910156 14.035156 -3.535156 Z M 6.804688 -2.277344 C 5.773438 -2.277344 4.953125 -2.800781 4.953125 -3.933594 C 4.953125 -5.035156 5.617188 -5.574219 6.902344 -5.886719 L 10.355469 -6.863281 C 10.355469 -3.722656 8.757812 -2.277344 6.804688 -2.277344 Z M 6.804688 -2.277344 "/></g></g></g><g fill="#000000" fill-opacity="1"><g transform="translate(83.652596, 27.439345)"><g><path d="M 8.6875 0.269531 C 12.292969 0.269531 15.125 -1.65625 15.832031 -5.09375 L 12.066406 -5.503906 C 11.613281 -3.777344 10.355469 -2.957031 8.644531 -2.957031 C 6.453125 -2.957031 4.964844 -4.695312 4.964844 -7.285156 C 4.964844 -9.890625 6.453125 -11.613281 8.644531 -11.613281 C 10.355469 -11.613281 11.613281 -10.808594 12.066406 -9.070312 L 15.832031 -9.480469 C 15.125 -12.917969 12.363281 -14.828125 8.6875 -14.828125 C 4.117188 -14.828125 0.890625 -11.8125 0.890625 -7.285156 C 0.890625 -2.773438 4.117188 0.269531 8.6875 0.269531 Z M 8.6875 0.269531 "/></g></g></g><g fill="#000000" fill-opacity="1"><g transform="translate(100.271764, 27.439345)"><g><path d="M 10.425781 -7.796875 L 16.171875 -14.542969 L 11.558594 -14.542969 L 6.960938 -8.941406 L 6.226562 -8.941406 L 6.226562 -21.730469 L 2.109375 -21.730469 L 2.109375 0 L 6.226562 0 L 6.226562 -6.113281 L 7.058594 -6.113281 L 11.757812 0 L 16.707031 0 Z M 10.425781 -7.796875 "/></g></g></g></svg>